<svg width="42" height="42" viewBox="0 0 42 42" fill="none" xmlns="http://www.w3.org/2000/svg">
<g id="COCO/Bold/Arrow - Right">
<path id="Vector" fill-rule="evenodd" clip-rule="evenodd" d="M15.8021 5.85147C19.221 5.04951 22.779 5.04951 26.1979 5.85147C31.1353 7.00961 34.9904 10.8647 36.1485 15.8021C36.9505 19.221 36.9505 22.779 36.1485 26.1979C34.9904 31.1353 31.1353 34.9904 26.1979 36.1485C22.779 36.9505 19.221 36.9505 15.8021 36.1485C10.8647 34.9904 7.00962 31.1353 5.85147 26.1979C5.04951 22.779 5.04951 19.221 5.85147 15.8021C7.00962 10.8647 10.8647 7.00961 15.8021 5.85147ZM18.614 24.4773C18.2214 24.8699 18.2214 25.5063 18.614 25.8988C19.0065 26.2914 19.6429 26.2914 20.0355 25.8988L24.2236 21.7107C24.4121 21.5222 24.518 21.2665 24.518 21C24.518 20.7334 24.4121 20.4777 24.2236 20.2892L20.0355 16.1011C19.6429 15.7085 19.0065 15.7085 18.614 16.1011C18.2214 16.4936 18.2214 17.13 18.614 17.5226L22.0913 21L18.614 24.4773Z" fill="#00D0B0"/>
</g>
</svg>
