<svg width="42" height="42" viewBox="0 0 42 42" fill="none" xmlns="http://www.w3.org/2000/svg">
<g id="COCO/Bold/Arrow - Left">
<path id="Vector" fill-rule="evenodd" clip-rule="evenodd" d="M15.8021 5.85147C19.221 5.04951 22.7791 5.04951 26.1979 5.85147C31.1353 7.00961 34.9904 10.8647 36.1485 15.8021C36.9505 19.221 36.9505 22.779 36.1485 26.1979C34.9904 31.1353 31.1353 34.9904 26.1979 36.1485C22.779 36.9505 19.221 36.9505 15.8021 36.1485C10.8647 34.9904 7.00962 31.1353 5.85147 26.1979C5.04951 22.779 5.04951 19.221 5.85147 15.8021C7.00962 10.8647 10.8647 7.00961 15.8021 5.85147ZM23.386 17.5226C23.7785 17.13 23.7785 16.4936 23.386 16.1011C22.9934 15.7085 22.357 15.7085 21.9645 16.1011L17.7763 20.2892C17.5878 20.4777 17.4819 20.7334 17.4819 21C17.4819 21.2665 17.5878 21.5222 17.7763 21.7107L21.9645 25.8988C22.357 26.2914 22.9934 26.2914 23.386 25.8988C23.7785 25.5063 23.7785 24.8699 23.386 24.4773L19.9086 21L23.386 17.5226Z" fill="#0F0B33"/>
</g>
</svg>
