<svg width="44" height="43" viewBox="0 0 44 43" fill="none" xmlns="http://www.w3.org/2000/svg">
<path id="Vector" d="M43.5273 21.5065C43.5165 26.7923 41.5649 31.8923 38.0389 35.8491C34.5129 39.8059 29.655 42.3472 24.3774 42.9958C24.2596 43.0073 24.1407 42.9945 24.0282 42.9581C23.9156 42.9217 23.8119 42.8626 23.7234 42.7845C23.635 42.7063 23.5638 42.6108 23.5142 42.504C23.4647 42.3972 23.4379 42.2813 23.4356 42.1637V26.4992H28.4585C28.6875 26.4996 28.9141 26.4534 29.1244 26.3633C29.3346 26.2733 29.5241 26.1413 29.681 25.9755C29.8379 25.8098 29.959 25.6139 30.0367 25.3998C30.1144 25.1857 30.1471 24.9581 30.1328 24.7309C30.0958 24.3006 29.8959 23.9002 29.5735 23.6107C29.2511 23.3211 28.8302 23.1639 28.3957 23.1707H23.4356V18.178C23.4356 17.2953 23.7884 16.4487 24.4164 15.8245C25.0444 15.2002 25.8961 14.8496 26.7842 14.8496H30.1328C30.3618 14.85 30.5884 14.8038 30.7987 14.7137C31.009 14.6237 31.1984 14.4917 31.3553 14.326C31.5123 14.1602 31.6333 13.9643 31.711 13.7502C31.7887 13.5361 31.8214 13.3085 31.8071 13.0813C31.7701 12.651 31.5702 12.2506 31.2478 11.9611C30.9254 11.6715 30.5045 11.5143 30.07 11.5211H26.7842C25.008 11.5211 23.3045 12.2225 22.0486 13.4709C20.7926 14.7193 20.087 16.4125 20.087 18.178V23.1707H15.0641C14.8351 23.1703 14.6085 23.2165 14.3982 23.3066C14.1879 23.3966 13.9985 23.5286 13.8416 23.6943C13.6846 23.8601 13.5636 24.056 13.4859 24.2701C13.4082 24.4842 13.3754 24.7118 13.3898 24.939C13.4268 25.3693 13.6267 25.7696 13.9491 26.0592C14.2715 26.3488 14.6924 26.506 15.1269 26.4992H20.087V42.1637C20.0876 42.2804 20.0635 42.3958 20.0163 42.5026C19.9691 42.6094 19.8998 42.7051 19.813 42.7836C19.7261 42.8621 19.6237 42.9215 19.5122 42.9581C19.4008 42.9946 19.2829 43.0075 19.1661 42.9958C8.11569 41.6644 -0.423274 32.1159 0.0162318 20.6952C0.262947 15.0551 2.71784 9.73422 6.85689 5.86837C10.996 2.00252 16.4913 -0.102074 22.1699 0.00381016C27.8485 0.109694 33.2606 2.41767 37.2509 6.4351C41.2412 10.4525 43.4936 15.8611 43.5273 21.5065Z" fill="#3366FF"/>
</svg>
