<svg width="48" height="47" viewBox="0 0 48 47" fill="none" xmlns="http://www.w3.org/2000/svg">
<g id="Group">
<path id="Vector" d="M36.1544 2H11.9725C6.63043 2 2.2998 6.27817 2.2998 11.5556V35.4444C2.2998 40.7219 6.63043 45 11.9725 45H36.1544C41.4965 45 45.8271 40.7219 45.8271 35.4444V11.5556C45.8271 6.27817 41.4965 2 36.1544 2Z" fill="#2F88FF" stroke="black" stroke-width="4" stroke-linejoin="round"/>
<path id="Vector_2" d="M24.0634 33.0564C29.4055 33.0564 33.7361 28.7783 33.7361 23.5009C33.7361 18.2235 29.4055 13.9453 24.0634 13.9453C18.7212 13.9453 14.3906 18.2235 14.3906 23.5009C14.3906 28.7783 18.7212 33.0564 24.0634 33.0564Z" fill="#43CCF8" stroke="white" stroke-width="4" stroke-linejoin="round"/>
<path id="Vector_3" d="M37.3635 12.7504C38.6991 12.7504 39.7817 11.6809 39.7817 10.3615C39.7817 9.04216 38.6991 7.97266 37.3635 7.97266C36.0279 7.97266 34.9453 9.04216 34.9453 10.3615C34.9453 11.6809 36.0279 12.7504 37.3635 12.7504Z" fill="white"/>
</g>
</svg>
