<svg width="45" height="43" viewBox="0 0 45 43" fill="none" xmlns="http://www.w3.org/2000/svg">
<path id="Vector" d="M44.165 5.09024C42.535 5.96798 40.8062 6.54413 39.0359 6.79953C40.8799 5.45607 42.2957 3.32866 42.9624 0.793877C41.2095 2.05835 39.2916 2.94925 37.2917 3.42808C35.6627 1.31844 33.342 0 30.7734 0C25.8415 0 21.843 4.86041 21.843 10.8551C21.843 11.706 21.922 12.5344 22.0742 13.3291C14.6525 12.8763 8.07236 8.5547 3.66777 1.98707C2.89924 3.59033 2.45887 5.45525 2.45887 7.44438C2.45887 11.2106 4.03554 14.5331 6.43158 16.4798C5.01346 16.4258 3.62654 15.9602 2.38661 15.1219C2.3861 15.1674 2.3861 15.2128 2.3861 15.2585C2.3861 20.518 5.46429 24.9056 9.5494 25.9028C8.23437 26.3375 6.85501 26.4012 5.51666 26.0888C6.65296 30.4015 9.951 33.5398 13.8586 33.6277C10.8023 36.539 6.9517 38.2746 2.76798 38.2746C2.04706 38.2746 1.33634 38.2231 0.637695 38.1229C4.58967 41.2029 9.28364 43 14.3267 43C30.7526 43 39.7347 26.4588 39.7347 12.114C39.7347 11.6432 39.7262 11.175 39.7089 10.7096C41.4572 9.17327 42.9661 7.27038 44.165 5.09024Z" fill="#55ACEE"/>
</svg>
